<svg preserveAspectRatio="none" width="100%" height="100%" overflow="visible" style="display: block;" viewBox="0 0 161 54" fill="none" xmlns="http://www.w3.org/2000/svg">
<g id="Layer_1" clip-path="url(#clip0_0_76)">
<path id="Vector" d="M26.8577 52.2368C12.3765 52.2368 0.724962 39.8535 1.82406 25.0664C2.72438 12.9828 12.2538 3.1208 24.2444 1.89834C37.9773 0.493678 49.7867 10.3028 51.6985 23.3032C51.7628 23.7381 52.1252 24.0673 52.5637 24.0673C53.0899 24.0673 53.5108 23.5971 53.4348 23.074C51.4529 9.43295 39.2869 -0.922734 24.9694 0.0646404C11.7802 0.975611 1.08743 11.6369 0.0818742 24.8901C-1.12245 40.7233 11.3593 54 26.8577 54C39.9943 54 50.956 44.4789 53.2652 31.9369C53.3646 31.3903 52.9554 30.879 52.4058 30.879C51.9791 30.879 51.6225 31.1905 51.5464 31.6077C49.3892 43.3328 39.1407 52.2368 26.8577 52.2368Z" fill="#FFFFFF"/>
<g id="Group">
<path id="i" d="M27.1851 35.6689C26.9512 35.6689 26.7174 35.6689 26.542 35.4338C26.3666 35.2575 26.3081 35.0812 26.3081 34.7873V22.9741C26.3081 22.739 26.3081 22.5039 26.542 22.3276C26.7174 22.1513 26.8928 22.0925 27.1851 22.0925C27.4774 22.0925 27.6528 22.0925 27.8282 22.3276C28.0036 22.5039 28.062 22.6802 28.062 22.9741V34.7873C28.062 35.0224 28.062 35.2575 27.8282 35.4338C27.6528 35.6101 27.4774 35.6689 27.1851 35.6689ZM27.7697 19.8592C27.9451 19.6828 28.0036 19.5065 28.0036 19.2127C28.0036 18.9188 28.0036 18.7425 27.7697 18.5662C27.5943 18.3899 27.4189 18.3311 27.1266 18.3311C26.8343 18.3311 26.6589 18.3899 26.4835 18.5662C26.3081 18.7425 26.2497 18.9188 26.2497 19.2127C26.2497 19.5065 26.2497 19.6828 26.4835 19.8592C26.6589 20.0355 26.8343 20.0943 27.1266 20.0943C27.4189 20.0943 27.5943 20.0355 27.7697 19.8592Z" fill="#FFFFFF"/>
<path id="Vector_2" d="M53.4348 28.1461C53.6102 27.9697 53.6686 27.7934 53.6686 27.4996C53.6686 27.2057 53.6686 27.0294 53.4348 26.8531C53.2594 26.6768 53.084 26.618 52.7917 26.618C52.4994 26.618 52.324 26.6768 52.1486 26.8531C51.9732 27.0294 51.9147 27.2057 51.9147 27.4996C51.9147 27.7934 51.9147 27.9697 52.1486 28.1461C52.324 28.3224 52.4994 28.3812 52.7917 28.3812C53.084 28.3812 53.2594 28.3224 53.4348 28.1461Z" fill="#FFFFFF"/>
<g id="Group_2">
<path id="Vector_3" d="M63.35 35.5574H61.7949V18.4487H63.35V35.5574Z" fill="#FFFFFF"/>
<path id="Vector_4" d="M70.3772 18.4428C72.8443 18.4428 74.9139 19.2597 76.6035 20.8877C78.2872 22.5157 79.1349 24.5551 79.1349 27C79.1349 29.4449 78.293 31.4843 76.6035 33.1123C74.9197 34.7403 72.8443 35.5572 70.3772 35.5572H65.3904V18.4486H70.3772V18.4428ZM70.3772 34.0644C72.4175 34.0644 74.1305 33.3944 75.5102 32.0485C76.8899 30.7027 77.5798 29.0218 77.5798 27C77.5798 24.9782 76.8899 23.2973 75.5102 21.9515C74.1305 20.6056 72.4234 19.9356 70.3772 19.9356H66.9513V34.0644H70.3772Z" fill="#FFFFFF"/>
<path id="Vector_5" d="M90.4883 19.9356H82.0288V25.8481H89.5646V27.3409H82.0288V34.0644H90.4883V35.5572H80.4678V18.4486H90.4883V19.9414V19.9356Z" fill="#FFFFFF"/>
<path id="Vector_6" d="M105.782 35.5572H103.981L98.4392 28.1284L92.897 35.5572H91.0963L97.5623 26.7825L91.4588 18.4486H93.2594L98.4392 25.4131L103.642 18.4486H105.443L99.3395 26.7825L105.782 35.5572Z" fill="#FFFFFF"/>
<path id="Vector_7" d="M114.119 18.4428H112.564L105.671 35.4103L105.613 35.5572H107.238L109.699 29.4919H109.647L113.341 20.4998L117.065 29.4919H117.019L117.621 30.9613L119.497 35.5572H121.123L114.119 18.4428Z" fill="#FFFFFF"/>
<path id="Vector_8" d="M144.245 18.4428H145.8V35.5514H144.245V21.9103L137.679 35.5514H136.247L129.682 21.9103V35.5514H128.127V18.4428H129.682L136.978 33.4532L144.25 18.4428H144.245Z" fill="#FFFFFF"/>
<path id="Vector_9" d="M152.248 18.4428C154.709 18.4428 156.785 19.2597 158.469 20.8877C160.152 22.5157 161 24.5551 161 27C161 29.4449 160.158 31.4843 158.469 33.1123C156.785 34.7403 154.709 35.5572 152.248 35.5572H147.261V18.4486H152.248V18.4428ZM152.248 34.0644C154.288 34.0644 156.001 33.3944 157.375 32.0485C158.755 30.7027 159.445 29.0218 159.445 27C159.445 24.9782 158.755 23.2973 157.375 21.9515C155.996 20.6056 154.288 19.9356 152.248 19.9356H148.816V34.0644H152.248Z" fill="#FFFFFF"/>
<line id="Line 1" x1="110" y1="27.25" x2="117" y2="27.25" stroke="#FFFFFF" stroke-width="1.5"/>
</g>
</g>
</g>
<defs>
<clipPath id="clip0_0_76">
<rect width="161" height="54" fill="white"/>
</clipPath>
</defs>
</svg>
