<svg preserveAspectRatio="none" width="100%" height="100%" overflow="visible" style="display: block;" viewBox="0 0 21.5 21.5" fill="none" xmlns="http://www.w3.org/2000/svg">
<g id="Group">
<path id="Vector" d="M2.29 11.5H0.75C0.34 11.5 0 11.16 0 10.75C0 10.34 0.34 10 0.75 10H2.29C2.7 10 3.04 10.34 3.04 10.75C3.04 11.16 2.7 11.5 2.29 11.5Z" fill="var(--fill-0, #2E2F3E)"/>
<path id="Vector_2" d="M20.75 11.5H19.29C18.88 11.5 18.54 11.16 18.54 10.75C18.54 10.34 18.88 10 19.29 10H20.75C21.16 10 21.5 10.34 21.5 10.75C21.5 11.16 21.16 11.5 20.75 11.5Z" fill="var(--fill-0, #2E2F3E)"/>
<path id="Vector_3" d="M3.68012 18.57C3.49012 18.57 3.30012 18.5 3.15012 18.35C2.86012 18.06 2.86012 17.58 3.15012 17.29L4.24012 16.2C4.53012 15.91 5.01012 15.91 5.30012 16.2C5.59012 16.49 5.59012 16.97 5.30012 17.26L4.21012 18.35C4.06012 18.5 3.87012 18.57 3.68012 18.57Z" fill="var(--fill-0, #2E2F3E)"/>
<path id="Vector_4" d="M16.7905 5.46C16.6005 5.46 16.4105 5.38999 16.2605 5.23999C15.9705 4.94999 15.9705 4.46999 16.2605 4.17999L17.2905 3.15C17.5805 2.86 18.0605 2.86 18.3505 3.15C18.6405 3.44 18.6405 3.92 18.3505 4.21L17.3205 5.23999C17.1705 5.38999 16.9805 5.46 16.7905 5.46Z" fill="var(--fill-0, #2E2F3E)"/>
<path id="Vector_5" d="M10.75 21.5C10.34 21.5 10 21.16 10 20.75V19.21C10 18.8 10.34 18.46 10.75 18.46C11.16 18.46 11.5 18.8 11.5 19.21V20.75C11.5 21.16 11.16 21.5 10.75 21.5Z" fill="var(--fill-0, #2E2F3E)"/>
<path id="Vector_6" d="M10.75 2.96C10.34 2.96 10 2.62 10 2.21V0.75C10 0.34 10.34 0 10.75 0C11.16 0 11.5 0.34 11.5 0.75V2.21C11.5 2.62 11.16 2.96 10.75 2.96Z" fill="var(--fill-0, #2E2F3E)"/>
<path id="Vector_7" d="M17.8199 18.57C17.6299 18.57 17.4399 18.5 17.2899 18.35L16.1999 17.26C15.9099 16.97 15.9099 16.49 16.1999 16.2C16.4899 15.91 16.9699 15.91 17.2599 16.2L18.3499 17.29C18.6399 17.58 18.6399 18.06 18.3499 18.35C18.1999 18.5 18.0099 18.57 17.8199 18.57Z" fill="var(--fill-0, #2E2F3E)"/>
<path id="Vector_8" d="M4.71012 5.46C4.52012 5.46 4.33012 5.38999 4.18012 5.23999L3.15012 4.21C2.86012 3.92 2.86012 3.44 3.15012 3.15C3.44012 2.86 3.92012 2.86 4.21012 3.15L5.24012 4.17999C5.53012 4.46999 5.53012 4.94999 5.24012 5.23999C5.09012 5.38999 4.90012 5.46 4.71012 5.46Z" fill="var(--fill-0, #2E2F3E)"/>
<path id="Vector_9" d="M11.0297 6.28997L12.1097 9.21C12.1397 9.29 12.2097 9.36 12.2897 9.39L15.2097 10.47C15.4697 10.57 15.4697 10.94 15.2097 11.03L12.2897 12.11C12.2097 12.14 12.1397 12.21 12.1097 12.29L11.0297 15.21C10.9297 15.47 10.5597 15.47 10.4697 15.21L9.3897 12.29C9.3597 12.21 9.2897 12.14 9.2097 12.11L6.28973 11.03C6.02973 10.93 6.02973 10.56 6.28973 10.47L9.2097 9.39C9.2897 9.36 9.3597 9.29 9.3897 9.21L10.4697 6.28997C10.5697 6.02997 10.9397 6.02997 11.0297 6.28997Z" fill="var(--fill-0, #2E2F3E)"/>
</g>
</svg>
